<?xml version="1.0" standalone="no"?><!DOCTYPE svg PUBLIC "-//W3C//DTD SVG 1.1//EN" "http://www.w3.org/Graphics/SVG/1.1/DTD/svg11.dtd"><svg class="icon" width="200px" height="200.00px" viewBox="0 0 1024 1024" version="1.1" xmlns="http://www.w3.org/2000/svg"><path fill="#333333" d="M151.552 86.016h196.608c9.556992 0.683008 17.408 4.096 23.552 10.24s9.216 13.824 9.216 23.04-3.072 16.896-9.216 23.04-13.995008 9.216-23.552 9.216H151.552v196.608c0 9.556992-3.072 17.408-9.216 23.552s-13.995008 9.216-23.552 9.216-17.408-3.072-23.552-9.216-9.216-13.995008-9.216-23.552V86.016h65.536z m0 851.968H86.016V675.84c0-9.556992 3.072-17.408 9.216-23.552s13.995008-9.216 23.552-9.216 17.408 3.072 23.552 9.216 9.216 13.995008 9.216 23.552v196.608h196.608c9.556992 0 17.408 3.072 23.552 9.216s9.216 13.824 9.216 23.04-3.072 16.896-9.216 23.04-13.995008 9.556992-23.552 10.24H151.552zM872.448 86.016h65.536v262.144c0 9.556992-3.072 17.408-9.216 23.552s-13.995008 9.216-23.552 9.216-17.408-3.072-23.552-9.216-9.216-13.995008-9.216-23.552V151.552H675.84c-9.556992 0-17.408-3.072-23.552-9.216s-9.216-13.824-9.216-23.04 3.072-16.896 9.216-23.04 13.995008-9.556992 23.552-10.24h196.608z m0 851.968H675.84c-9.556992-0.683008-17.408-4.096-23.552-10.24s-9.216-13.824-9.216-23.04 3.072-16.896 9.216-23.04 13.995008-9.216 23.552-9.216h196.608V675.84c0-9.556992 3.072-17.408 9.216-23.552s13.995008-9.216 23.552-9.216 17.408 3.072 23.552 9.216 9.216 13.995008 9.216 23.552v262.144h-65.536z" /></svg>