<?xml version="1.0" standalone="no"?><!DOCTYPE svg PUBLIC "-//W3C//DTD SVG 1.1//EN" "http://www.w3.org/Graphics/SVG/1.1/DTD/svg11.dtd"><svg class="icon" width="200px" height="200.00px" viewBox="0 0 1024 1024" version="1.1" xmlns="http://www.w3.org/2000/svg"><path fill="#ffffff" d="M810.666667 597.333333h-85.333334v128h-128v85.333334h128v128h85.333334v-128h128v-85.333334h-128zM128 768a42.666667 42.666667 0 0 0 42.666667 42.666667h128v-85.333334H213.333333v-85.333333H128v128zM810.666667 170.666667a42.666667 42.666667 0 0 0-42.666667-42.666667h-128v85.333333h85.333333v85.333334h85.333334V170.666667zM213.333333 213.333333h85.333334V128H170.666667a42.666667 42.666667 0 0 0-42.666667 42.666667v128h85.333333V213.333333zM128 384h85.333333v170.666667H128z m597.333333 0h85.333334v128h-85.333334zM384 128h170.666667v85.333333H384z m0 597.333333h128v85.333334H384z"  /></svg>